<?xml version="1.0" standalone="no"?>
<!DOCTYPE svg PUBLIC "-//W3C//DTD SVG 20010904//EN"
 "http://www.w3.org/TR/2001/REC-SVG-20010904/DTD/svg10.dtd">
<svg version="1.0" xmlns="http://www.w3.org/2000/svg"
 width="800.000000pt" height="848.000000pt" viewBox="0 0 800.000000 848.000000"
 preserveAspectRatio="xMidYMid meet">

<g transform="translate(0.000000,848.000000) scale(0.100000,-0.100000)"
fill="#000000" stroke="none">
<path d="M3830 7844 c-250 -17 -448 -46 -665 -99 -1056 -253 -1947 -993 -2396
-1988 -109 -242 -199 -522 -249 -779 l-23 -118 -242 -2 -242 -3 97 -165 c133
-227 307 -526 339 -580 133 -232 204 -350 211 -350 9 0 630 1085 630 1102 0 8
-59 9 -231 4 l-231 -7 7 43 c12 79 74 312 113 428 402 1187 1474 2044 2719
2176 186 20 613 14 773 -10 365 -55 672 -149 975 -296 600 -292 1068 -728
1405 -1309 6 -11 38 3 146 64 77 43 140 79 142 81 2 1 -33 60 -77 131 -572
922 -1533 1531 -2616 1658 -128 15 -477 26 -585 19z"/>
<path d="M4546 6143 c-3 -10 -17 -94 -31 -188 -14 -93 -27 -170 -28 -170 -59
-16 -163 -56 -230 -89 l-89 -42 -153 108 c-84 59 -158 108 -163 108 -5 0 -24
-17 -42 -37 -18 -21 -104 -110 -191 -199 -88 -88 -159 -163 -159 -167 0 -4 47
-78 105 -165 l106 -158 -34 -75 c-19 -40 -44 -104 -56 -141 -17 -51 -27 -67
-45 -72 -32 -8 -346 -76 -352 -76 -2 0 -4 -128 -4 -285 l0 -285 23 -5 c12 -3
83 -14 157 -25 74 -11 149 -22 166 -25 27 -5 34 -13 49 -53 9 -26 35 -88 57
-139 l39 -91 -107 -161 -107 -160 198 -205 198 -205 76 54 c42 30 113 80 159
111 l82 57 98 -46 c53 -25 127 -55 165 -68 37 -12 67 -23 67 -25 0 -7 71 -338
76 -356 5 -17 27 -18 289 -18 l283 0 10 63 c6 34 18 114 27 177 9 63 20 124
25 136 5 12 25 25 51 33 24 7 88 33 141 58 l97 45 33 -23 c18 -12 85 -60 149
-105 64 -46 120 -84 125 -86 6 -2 99 88 207 200 l197 202 -101 152 c-56 83
-104 159 -106 169 -3 9 8 41 23 70 15 30 40 90 55 134 22 62 33 81 51 86 13 4
93 21 178 39 85 18 161 34 168 36 9 3 12 69 12 289 0 157 -3 285 -7 285 -17 0
-375 59 -377 62 -2 2 -15 39 -30 83 -16 44 -39 101 -52 127 -13 26 -24 52 -24
58 0 6 47 81 105 167 l105 158 -58 60 c-141 148 -337 345 -342 345 -3 0 -74
-49 -159 -109 l-155 -109 -85 43 c-47 23 -111 50 -141 60 -30 10 -58 20 -62
24 -4 3 -23 80 -43 171 -20 90 -38 174 -41 187 l-6 23 -283 0 c-262 0 -284 -1
-289 -17z m516 -701 c349 -93 603 -342 701 -687 14 -50 21 -112 24 -218 5
-127 2 -161 -16 -240 -80 -345 -329 -607 -677 -713 -81 -25 -104 -28 -254 -28
-142 -1 -177 2 -248 22 -177 48 -334 143 -459 276 -449 481 -299 1246 301
1526 73 35 190 71 271 83 70 12 281 -1 357 -21z"/>
<path d="M7054 4308 c-164 -288 -307 -538 -317 -556 l-19 -33 233 1 234 1 -3
-38 c-6 -63 -77 -330 -125 -463 -253 -712 -753 -1319 -1399 -1702 -797 -471
-1759 -582 -2628 -302 -680 219 -1243 630 -1659 1212 -44 63 -85 121 -90 129
-7 14 -30 3 -142 -67 -74 -46 -136 -85 -137 -86 -7 -5 141 -217 219 -314 423
-531 988 -932 1627 -1154 849 -294 1778 -254 2610 114 984 434 1735 1325 1997
2369 27 109 65 288 65 307 0 2 108 4 240 4 132 0 240 3 240 7 0 11 -634 1093
-641 1093 -4 0 -141 -235 -305 -522z"/>
<path d="M2110 4694 l-13 -96 -36 -14 c-20 -8 -62 -27 -93 -41 l-58 -27 -85
59 -85 58 -102 -108 c-57 -59 -105 -112 -107 -117 -2 -5 22 -46 52 -92 l55
-82 -19 -35 c-10 -18 -25 -55 -34 -81 l-16 -47 -67 -14 c-37 -9 -82 -18 -99
-22 l-33 -7 0 -157 0 -158 96 -14 c65 -9 99 -19 105 -29 4 -8 21 -45 37 -81
l30 -66 -54 -81 c-30 -45 -54 -85 -54 -89 1 -5 48 -57 106 -118 81 -85 107
-108 119 -100 8 6 46 32 84 59 l70 49 54 -26 c30 -14 72 -31 95 -38 34 -10 42
-17 47 -43 4 -17 14 -61 22 -98 l15 -68 158 0 158 0 13 90 c6 50 17 96 23 103
6 7 46 28 88 46 l77 33 71 -52 c39 -28 77 -53 83 -56 19 -7 231 212 221 228
-4 7 -30 46 -57 87 l-49 73 21 47 c11 25 27 62 35 83 14 35 17 37 93 53 129
27 118 9 118 186 l0 154 -99 15 c-90 14 -100 17 -109 40 -6 14 -21 50 -35 82
l-24 56 49 74 c27 40 52 78 56 84 4 7 -39 59 -101 125 l-108 113 -83 -58 -82
-58 -57 25 c-31 14 -69 29 -85 32 -34 9 -34 8 -52 96 -8 41 -17 84 -20 97 -5
22 -8 22 -163 22 l-158 0 -14 -96z m303 -289 c274 -71 454 -345 404 -613 -50
-265 -270 -452 -531 -452 -154 0 -277 51 -387 160 -103 102 -159 237 -159 383
0 238 170 457 406 522 67 18 197 18 267 0z"/>
</g>
</svg>
